<?xml version="1.0" encoding="utf-8"?>
<!-- Generator: Adobe Illustrator 22.1.0, SVG Export Plug-In . SVG Version: 6.00 Build 0)  -->
<svg version="1.1" id="Group_2294" xmlns="http://www.w3.org/2000/svg" xmlns:xlink="http://www.w3.org/1999/xlink" x="0px" y="0px"
	 viewBox="0 0 20 30" style="enable-background:new 0 0 20 30;" xml:space="preserve">
<style type="text/css">
	.st0{fill:#424A55;}
	.st1{enable-background:new    ;}
</style>
<g id="Group_2293" transform="translate(0.571)">
	<path id="Path_297" class="st0" d="M0,0h19v8.1h-1.9V2.3H1.9v5.8H0V0z M0,21.9h1.9v5.8h15.2v-5.8h1.9V30H0V21.9z"/>
</g>
<g class="st1">
	<path class="st0" d="M6.2,12.3l-0.7,1.4c-0.4-0.3-0.8-0.4-1.3-0.4c-0.9,0-1.5,0.6-1.5,1.6c0,1,0.6,1.7,1.5,1.7c0.5,0,1-0.2,1.4-0.5
		l0.8,1.3c-0.6,0.6-1.5,0.9-2.4,0.9c-1.8,0-3.3-1.2-3.3-3.4c0-2.1,1.5-3.3,3.2-3.3C4.8,11.5,5.6,11.7,6.2,12.3z"/>
	<path class="st0" d="M9.8,11.5c0.9,0,1.7,0.2,2.3,0.6l-0.6,1.3c-0.5-0.3-1.2-0.5-1.7-0.5c-0.5,0-0.7,0.2-0.7,0.4
		c0,0.4,0.5,0.4,1.3,0.7c1.1,0.3,1.8,0.8,1.8,1.8c0,1.5-1.2,2.2-2.7,2.2c-1,0-1.9-0.3-2.3-0.7l0.4-1.5c0.5,0.3,1.2,0.5,1.7,0.5
		c0.6,0,0.9-0.2,0.9-0.5c0-0.4-0.7-0.4-1.5-0.7c-1-0.3-1.5-0.9-1.5-1.8C7.3,12.3,8.3,11.5,9.8,11.5L9.8,11.5z"/>
	<path class="st0" d="M16.8,18h-1.8l-2.5-6.3h2.1l1.3,4.1l1.3-4.1h2.2L16.8,18z"/>
</g>
</svg>
