<svg id="Capa_1" data-name="Capa 1" xmlns="http://www.w3.org/2000/svg" xmlns:xlink="http://www.w3.org/1999/xlink" viewBox="0 0 398.67 147.33"><defs><style>.cls-1,.cls-10,.cls-11,.cls-14,.cls-19,.cls-2,.cls-22,.cls-27,.cls-3,.cls-30,.cls-9{fill:none;}.cls-2{clip-rule:evenodd;}.cls-3{fill-rule:evenodd;}.cls-4{clip-path:url(#clip-path);}.cls-5{fill:#fff;}.cls-6{clip-path:url(#clip-path-2);}.cls-7{clip-path:url(#clip-path-3);}.cls-8{clip-path:url(#clip-path-4);}.cls-10,.cls-9{stroke:#ddd;stroke-linecap:square;stroke-width:0.5px;}.cls-10,.cls-11,.cls-14,.cls-19,.cls-22,.cls-27,.cls-30,.cls-9{stroke-miterlimit:10;}.cls-9{stroke-dasharray:1 2;opacity:0.6;}.cls-10{stroke-dasharray:1 4;opacity:0.5;}.cls-11,.cls-14{stroke:#ef6950;}.cls-11,.cls-19,.cls-27{stroke-width:3px;}.cls-12{clip-path:url(#clip-path-5);}.cls-13{clip-path:url(#clip-path-6);}.cls-14,.cls-22,.cls-30{stroke-width:2.67px;}.cls-15{clip-path:url(#clip-path-10);}.cls-16{clip-path:url(#clip-path-11);}.cls-17{clip-path:url(#clip-path-15);}.cls-18{clip-path:url(#clip-path-16);}.cls-19,.cls-22{stroke:#4f6bed;}.cls-20{clip-path:url(#clip-path-21);}.cls-21{clip-path:url(#clip-path-22);}.cls-23{clip-path:url(#clip-path-26);}.cls-24{clip-path:url(#clip-path-27);}.cls-25{clip-path:url(#clip-path-31);}.cls-26{clip-path:url(#clip-path-32);}.cls-27,.cls-30{stroke:#30c6cc;}.cls-28{clip-path:url(#clip-path-37);}.cls-29{clip-path:url(#clip-path-38);}.cls-31{clip-path:url(#clip-path-42);}.cls-32{clip-path:url(#clip-path-43);}.cls-33{clip-path:url(#clip-path-47);}.cls-34{clip-path:url(#clip-path-48);}</style><clipPath id="clip-path"><rect class="cls-1" x="680.67" y="4.67" width="214" height="38"/></clipPath><clipPath id="clip-path-2"><rect class="cls-1" x="681.67" y="6.67" width="212" height="36"/></clipPath><clipPath id="clip-path-3"><rect class="cls-1" x="681.67" y="4.67" width="212" height="36"/></clipPath><clipPath id="clip-path-4"><rect class="cls-1" x="-48.7" y="-24" width="472" height="216"/></clipPath><clipPath id="clip-path-5"><path class="cls-2" d="M51.3,89.33A4.67,4.67,0,1,0,56,94,4.67,4.67,0,0,0,51.3,89.33Zm0,1.34A3.33,3.33,0,1,1,48,94,3.34,3.34,0,0,1,51.3,90.67ZM26.64,69.33H76v49.34H26.64Z"/></clipPath><clipPath id="clip-path-6"><path class="cls-2" d="M51.3,90h0a4,4,0,1,1-4,4A4,4,0,0,1,51.3,90Z"/></clipPath><clipPath id="clip-path-10"><path class="cls-2" d="M195.3,55.33A4.67,4.67,0,1,0,200,60,4.67,4.67,0,0,0,195.3,55.33Zm0,1.34A3.33,3.33,0,1,1,192,60,3.34,3.34,0,0,1,195.3,56.67ZM170.64,35.33H220V84.67H170.64Z"/></clipPath><clipPath id="clip-path-11"><path class="cls-2" d="M195.3,56h0a4,4,0,1,1-4,4A4,4,0,0,1,195.3,56Z"/></clipPath><clipPath id="clip-path-15"><path class="cls-2" d="M339.3,111.33A4.67,4.67,0,1,0,344,116,4.67,4.67,0,0,0,339.3,111.33Zm0,1.34A3.33,3.33,0,1,1,336,116,3.34,3.34,0,0,1,339.3,112.67ZM314.64,91.33H364v49.34H314.64Z"/></clipPath><clipPath id="clip-path-16"><path class="cls-2" d="M339.3,112h0a4,4,0,1,1-4,4A4,4,0,0,1,339.3,112Z"/></clipPath><clipPath id="clip-path-21"><path class="cls-2" d="M51.3,72.33A4.67,4.67,0,1,0,56,77,4.67,4.67,0,0,0,51.3,72.33Zm0,1.34A3.33,3.33,0,1,1,48,77,3.34,3.34,0,0,1,51.3,73.67ZM26.64,52.33H76v49.34H26.64Z"/></clipPath><clipPath id="clip-path-22"><path class="cls-2" d="M51.3,73h0a4,4,0,1,1-4,4A4,4,0,0,1,51.3,73Z"/></clipPath><clipPath id="clip-path-26"><path class="cls-2" d="M195.3,63.33A4.67,4.67,0,1,0,200,68,4.67,4.67,0,0,0,195.3,63.33Zm0,1.34A3.33,3.33,0,1,1,192,68,3.34,3.34,0,0,1,195.3,64.67ZM170.64,43.33H220V92.67H170.64Z"/></clipPath><clipPath id="clip-path-27"><path class="cls-2" d="M195.3,64h0a4,4,0,1,1-4,4A4,4,0,0,1,195.3,64Z"/></clipPath><clipPath id="clip-path-31"><path class="cls-2" d="M339.3,79.33A4.67,4.67,0,1,0,344,84,4.67,4.67,0,0,0,339.3,79.33Zm0,1.34A3.33,3.33,0,1,1,336,84,3.34,3.34,0,0,1,339.3,80.67ZM314.64,59.33H364v49.34H314.64Z"/></clipPath><clipPath id="clip-path-32"><path class="cls-2" d="M339.3,80h0a4,4,0,1,1-4,4A4,4,0,0,1,339.3,80Z"/></clipPath><clipPath id="clip-path-37"><path class="cls-2" d="M51.3,40.33A4.67,4.67,0,1,0,56,45,4.67,4.67,0,0,0,51.3,40.33Zm0,1.34A3.33,3.33,0,1,1,48,45,3.34,3.34,0,0,1,51.3,41.67ZM26.64,20.33H76V69.67H26.64Z"/></clipPath><clipPath id="clip-path-38"><path class="cls-2" d="M51.3,41h0a4,4,0,1,1-4,4A4,4,0,0,1,51.3,41Z"/></clipPath><clipPath id="clip-path-42"><path class="cls-2" d="M195.3,71.33A4.67,4.67,0,1,0,200,76,4.67,4.67,0,0,0,195.3,71.33Zm0,1.34A3.33,3.33,0,1,1,192,76,3.34,3.34,0,0,1,195.3,72.67ZM170.64,51.33H220v49.34H170.64Z"/></clipPath><clipPath id="clip-path-43"><path class="cls-2" d="M195.3,72h0a4,4,0,1,1-4,4A4,4,0,0,1,195.3,72Z"/></clipPath><clipPath id="clip-path-47"><path class="cls-2" d="M339.3,63.33A4.67,4.67,0,1,0,344,68,4.67,4.67,0,0,0,339.3,63.33Zm0,1.34A3.33,3.33,0,1,1,336,68,3.34,3.34,0,0,1,339.3,64.67ZM314.64,43.33H364V92.67H314.64Z"/></clipPath><clipPath id="clip-path-48"><path class="cls-2" d="M339.3,64h0a4,4,0,1,1-4,4A4,4,0,0,1,339.3,64Z"/></clipPath></defs><title>grafica</title><g class="cls-4"><rect class="cls-5" x="255.67" y="6.67" width="208" height="32" rx="4" ry="4"/></g><g class="cls-6"><rect class="cls-5" x="259.67" y="6.67" width="208" height="32" rx="4" ry="4"/></g><g class="cls-7"><rect class="cls-5" x="259.67" y="6.67" width="208" height="32" rx="4" ry="4"/></g><g class="cls-8"><line class="cls-9" x1="3.8" y1="139.5" x2="395.8" y2="139.5"/><line class="cls-9" x1="3.8" y1="107.5" x2="395.8" y2="107.5"/><line class="cls-9" x1="3.8" y1="75.5" x2="395.8" y2="75.5"/><line class="cls-9" x1="3.8" y1="43.5" x2="395.8" y2="43.5"/><line class="cls-9" x1="3.8" y1="11.5" x2="395.8" y2="11.5"/><line class="cls-10" x1="51.8" y1="141.5" x2="51.8" y2="3.37"/><line class="cls-10" x1="195.8" y1="141.5" x2="195.8" y2="3.37"/><line class="cls-10" x1="339.8" y1="141.5" x2="339.8" y2="3.37"/><path class="cls-11" d="M51.26,93.63C81.58,93.63,147.13,59.9,195,59.9c47.06,0,104.33,56,143.71,56"/></g><g class="cls-12"><g class="cls-13"><g class="cls-8"><path class="cls-5" d="M51.3,90h0a4,4,0,1,1-4,4A4,4,0,0,1,51.3,90Z"/></g></g></g><g class="cls-13"><g class="cls-8"><path class="cls-14" d="M51.3,90h0a4,4,0,1,1-4,4A4,4,0,0,1,51.3,90Z"/></g></g><g class="cls-15"><g class="cls-16"><g class="cls-8"><path class="cls-5" d="M195.3,56h0a4,4,0,1,1-4,4A4,4,0,0,1,195.3,56Z"/></g></g></g><g class="cls-16"><g class="cls-8"><path class="cls-14" d="M195.3,56h0a4,4,0,1,1-4,4A4,4,0,0,1,195.3,56Z"/></g></g><g class="cls-17"><g class="cls-18"><g class="cls-8"><path class="cls-5" d="M339.3,112h0a4,4,0,1,1-4,4A4,4,0,0,1,339.3,112Z"/></g></g></g><g class="cls-18"><g class="cls-8"><path class="cls-14" d="M339.3,112h0a4,4,0,1,1-4,4A4,4,0,0,1,339.3,112Z"/></g></g><g class="cls-8"><path class="cls-19" d="M51.26,76.75c30.32,0,96.31-9.08,144.15-9.08,47.07,0,103.9,16.21,143.28,16.21"/></g><g class="cls-20"><g class="cls-21"><g class="cls-8"><path class="cls-5" d="M51.3,73h0a4,4,0,1,1-4,4A4,4,0,0,1,51.3,73Z"/></g></g></g><g class="cls-21"><g class="cls-8"><path class="cls-22" d="M51.3,73h0a4,4,0,1,1-4,4A4,4,0,0,1,51.3,73Z"/></g></g><g class="cls-23"><g class="cls-24"><g class="cls-8"><path class="cls-5" d="M195.3,64h0a4,4,0,1,1-4,4A4,4,0,0,1,195.3,64Z"/></g></g></g><g class="cls-24"><g class="cls-8"><path class="cls-22" d="M195.3,64h0a4,4,0,1,1-4,4A4,4,0,0,1,195.3,64Z"/></g></g><g class="cls-25"><g class="cls-26"><g class="cls-8"><path class="cls-5" d="M339.3,80h0a4,4,0,1,1-4,4A4,4,0,0,1,339.3,80Z"/></g></g></g><g class="cls-26"><g class="cls-8"><path class="cls-22" d="M339.3,80h0a4,4,0,1,1-4,4A4,4,0,0,1,339.3,80Z"/></g></g><g class="cls-8"><path class="cls-27" d="M51.26,44.75c30.32,0,96.47,31.8,144.32,31.8,47.07,0,104.61-8.45,144-8.45"/></g><g class="cls-28"><g class="cls-29"><g class="cls-8"><path class="cls-5" d="M51.3,41h0a4,4,0,1,1-4,4A4,4,0,0,1,51.3,41Z"/></g></g></g><g class="cls-29"><g class="cls-8"><path class="cls-30" d="M51.3,41h0a4,4,0,1,1-4,4A4,4,0,0,1,51.3,41Z"/></g></g><g class="cls-31"><g class="cls-32"><g class="cls-8"><path class="cls-5" d="M195.3,72h0a4,4,0,1,1-4,4A4,4,0,0,1,195.3,72Z"/></g></g></g><g class="cls-32"><g class="cls-8"><path class="cls-30" d="M195.3,72h0a4,4,0,1,1-4,4A4,4,0,0,1,195.3,72Z"/></g></g><g class="cls-33"><g class="cls-34"><g class="cls-8"><path class="cls-5" d="M339.3,64h0a4,4,0,1,1-4,4A4,4,0,0,1,339.3,64Z"/></g></g></g><g class="cls-34"><g class="cls-8"><path class="cls-30" d="M339.3,64h0a4,4,0,1,1-4,4A4,4,0,0,1,339.3,64Z"/></g></g></svg>