<svg id="Capa_1" data-name="Capa 1" xmlns="http://www.w3.org/2000/svg" viewBox="0 0 531.68 130.62"><defs><style>.cls-1{fill:#adacac;}.cls-2{fill:#e17f2f;}.cls-3{fill:#616160;}</style></defs><title>Orax Horizontal SVG</title><path class="cls-1" d="M143.4,100.57a50.13,50.13,0,0,0-82.23,53.54Z" transform="translate(-43.32 -55.44)"/><path class="cls-1" d="M79.46,177.22a50.12,50.12,0,0,0,72.08-65.9Z" transform="translate(-43.32 -55.44)"/><polygon class="cls-2" points="85.35 64.71 24.98 111.23 0 130.48 26.62 130.48 36.14 121.78 108.21 55.88 169.33 0 85.35 64.71"/><path class="cls-3" d="M291.36,161.17q0,9.09-3.47,12.24t-12.68,3.15H227.28q-9.19,0-12.67-3.15t-3.47-12.24v-34.3q0-9.09,3.47-12.24t12.67-3.15h47.93q9.21,0,12.68,3.15t3.47,12.24Zm-15.14,3.16V123.08H226.28v41.25Z" transform="translate(-43.32 -55.44)"/><path class="cls-3" d="M391.23,176.56h-21.7L343.3,152H328.92v24.59H314V111.48h55.75q14.64,0,14.63,12.61v15.26q0,9.47-7.56,11.73-2.91.88-15.64.89Zm-21.45-40.87v-7.82q0-3.27-1.89-4.28c-.93-.59-2.56-.89-4.92-.89H328.92v18.17H363c2.36,0,4-.3,4.92-.89Q369.78,139,369.78,135.69Z" transform="translate(-43.32 -55.44)"/><path class="cls-3" d="M486.83,176.56h-17L462,162.31H420.74l-7.57,14.25H398l36.83-65.08H449.5Zm-31.15-26-14-26.49-14.51,26.49Z" transform="translate(-43.32 -55.44)"/><path class="cls-3" d="M575,176.56H554.44L530.6,151.34l-22,25.22H490.74l30.91-33.42-31.41-31.66h20.05l20.82,22.07,19.8-22.07h17.41l-28.38,29.89Z" transform="translate(-43.32 -55.44)"/></svg>