<svg id="Layer_4" data-name="Layer 4" xmlns="http://www.w3.org/2000/svg" viewBox="0 0 807.29 215.23"><defs><style>.cls-1{fill:#231f20;}.cls-2{fill:#fdb714;}.cls-3{fill:#6d6e71;}</style></defs><title>ABRAXAS iNTELLIGENCE FOR WEB HORIZONTAL</title><path class="cls-1" d="M440.45,313.29l-34.53,61h14.19l7.1-13.36h38.68l7.33,13.36h16l-35-61Zm6.38,11.82L460,349.95H433.24Z" transform="translate(-223.78 -257.12)"/><path class="cls-1" d="M508.81,374.31v-61h52.28q13.71,0,13.72,11.83v7.45q0,9-10.53,10.29,11,1.42,11,11.71v7.8q0,11.95-18,11.94Zm46.37-51.09h-32.4v14.54h32.4q6.5,0,6.51-4.38V327.6q0-4.38-6.51-4.38m0,24.6h-32.4v15.49h32.4a10.64,10.64,0,0,0,5-.83q1.9-1.18,1.9-4.61v-4.62c0-2.28-.63-3.81-1.9-4.61a10.64,10.64,0,0,0-5-.83" transform="translate(-223.78 -257.12)"/><path class="cls-1" d="M602.72,374.31v-61H655q13.72,0,13.72,11.82v14.31q0,11.83-13.72,11.83h-8l28.15,23.06H654.75l-24.6-23.06H616.67v23.06Zm45.89-50.62H616.67v17.14H648.6a10.4,10.4,0,0,0,4.61-.71Q655,339.05,655,336v-7.38c0-2.07-.59-3.46-1.77-4.17a10.4,10.4,0,0,0-4.61-.71" transform="translate(-223.78 -257.12)"/><path class="cls-1" d="M720.39,313.29l-34.53,61H700l7.1-13.36h38.68l7.33,13.36h16l-35-61Zm6.38,11.82,13.13,24.84H713.17Z" transform="translate(-223.78 -257.12)"/><polygon class="cls-1" points="612.04 56.16 593.47 76.86 573.96 56.16 555.15 56.16 584.6 85.85 555.63 117.19 572.42 117.19 593 93.53 615.35 117.19 634.63 117.19 601.75 84.19 628.36 56.16 612.04 56.16"/><path class="cls-1" d="M896.49,313.29l-34.53,61h14.19l7.1-13.36h38.68l7.33,13.36h16l-35-61Zm6.38,11.82L916,349.95H889.27Z" transform="translate(-223.78 -257.12)"/><path class="cls-1" d="M1017.71,323.93H977.62v13.13h38.17q8.77,0,12,3t3.25,11.47v8.39q0,8.52-3.25,11.47t-12,3H978.09q-8.75,0-12-3t-3.24-11.47v-4.23l12.53,0v7.21h43.16v-14H980.46q-8.75,0-11.94-3t-3.19-11.47v-6.74c0-5.68,1.06-9.5,3.19-11.47s6.11-3,11.94-3h34.66q8.4,0,11.77,2.85t3.37,10.53v4.19l-12.53.06Z" transform="translate(-223.78 -257.12)"/><path class="cls-2" d="M339.47,330.44a67.24,67.24,0,1,1-86.1,4.44,75.84,75.84,0,1,0,86.1-4.44Z" transform="translate(-223.78 -257.12)"/><polygon class="cls-2" points="41.3 49.33 41.3 159.63 57.34 177.12 57.34 29.66 41.3 49.33"/><polygon class="cls-2" points="94.36 29.66 94.36 177.12 110.39 159.63 110.39 49.33 94.36 29.66"/><polygon class="cls-2" points="68.02 129.96 84.05 129.94 83.66 10.93 75.63 0 67.63 10.93 68.02 129.96"/><path class="cls-3" d="M672.68,458V409.7h4.55V458Z" transform="translate(-223.78 -257.12)"/><path class="cls-3" d="M718.46,432.52V458H714V433.71c0-4.83-1.75-6.65-5.88-6.65-4.41,0-8.33,2.1-14.14,5.88L694.1,458h-4.48V424.12h3.71l.28,5.6c5.39-4.13,10.57-6.51,15.75-6.51C715.31,423.21,718.46,426.43,718.46,432.52Z" transform="translate(-223.78 -257.12)"/><path class="cls-3" d="M736.73,449.6c0,3.43,1.61,4.9,5,4.9h5.53l.56,3.36a47.12,47.12,0,0,1-7.07.7c-5.6,0-8.4-3-8.4-8.47V427.62h-6.16v-3.15l6.16-.35V413.83h4.41v10.29h11.48v3.5H736.73Z" transform="translate(-223.78 -257.12)"/><path class="cls-3" d="M782.23,454.15l.49,3c-2.87,1.12-9,1.68-12.81,1.68-11.34,0-15.75-4.9-15.75-17.92,0-13.23,4.41-17.71,15.19-17.71,9.73,0,14.07,3.57,14.14,10.57.07,6.09-2.24,9.45-7.77,9.45H758.84c.49,9.24,3.92,11.76,11.69,11.76A96.5,96.5,0,0,0,782.23,454.15Zm-23.45-14.42h15.89c3.5,0,4.41-2.52,4.34-5.88-.07-4.76-2.87-6.79-9.45-6.79C761.71,427.06,759,430.14,758.77,439.73Z" transform="translate(-223.78 -257.12)"/><path class="cls-3" d="M797.69,449.6c0,3.22,1.75,4.9,5,4.9h3.57l.49,3.36a22.68,22.68,0,0,1-5.6.7c-4.76,0-7.84-2.87-7.84-8.12V409h4.41Z" transform="translate(-223.78 -257.12)"/><path class="cls-3" d="M817.78,449.6c0,3.22,1.75,4.9,5,4.9h3.57l.49,3.36a22.68,22.68,0,0,1-5.6.7c-4.76,0-7.84-2.87-7.84-8.12V409h4.41Z" transform="translate(-223.78 -257.12)"/><path class="cls-3" d="M836.89,409.83a1.3,1.3,0,0,1,1.47,1.47v4.06a1.3,1.3,0,0,1-1.47,1.47h-2c-1,0-1.47-.49-1.47-1.47V411.3c0-1,.42-1.47,1.47-1.47ZM833.67,458V424.12h4.41V458Z" transform="translate(-223.78 -257.12)"/><path class="cls-3" d="M875.25,427c1.4,1.75,2,4.06,2,7,0,7.28-3.71,10.57-14.14,10.57a26,26,0,0,1-7.7-.91c-2,2.59-2,6.23,2.59,7l13,2.17c6.3,1,8.19,3.78,8.19,9.31,0,7.7-4.06,10.22-15.75,10.22-11.9,0-16-2.52-16-10.08,0-4.48,1.4-6.79,5.74-9-4.13-2.38-3.5-8.12-.14-10.64-3-1.68-4.2-4.55-4.2-8.68,0-7.42,3.71-10.78,14.21-10.78a25.54,25.54,0,0,1,7.63.91h10.5l-.28,2.52Zm-6.37,29.19-12.67-2-.28.21c-3.08,2.1-4.13,3.92-4.13,7.56,0,5.18,2.73,6.58,11.62,6.58,8.68,0,11.41-1.47,11.41-6.58C874.83,458.14,873.78,457,868.88,456.18ZM873,434c0-5.11-2.52-7.28-9.94-7.28S853,428.88,853,434s2.66,7.14,10.08,7.14S873,439,873,434Z" transform="translate(-223.78 -257.12)"/><path class="cls-3" d="M914.8,454.15l.49,3c-2.87,1.12-9,1.68-12.81,1.68-11.34,0-15.75-4.9-15.75-17.92,0-13.23,4.41-17.71,15.19-17.71,9.73,0,14.07,3.57,14.14,10.57.07,6.09-2.24,9.45-7.77,9.45H891.42c.49,9.24,3.92,11.76,11.69,11.76A96.5,96.5,0,0,0,914.8,454.15Zm-23.45-14.42h15.89c3.5,0,4.41-2.52,4.34-5.88-.07-4.76-2.87-6.79-9.45-6.79C894.29,427.06,891.56,430.14,891.35,439.73Z" transform="translate(-223.78 -257.12)"/><path class="cls-3" d="M954.63,432.52V458h-4.41V433.71c0-4.83-1.75-6.65-5.88-6.65-4.41,0-8.33,2.1-14.14,5.88l.07,25.06h-4.48V424.12h3.71l.28,5.6c5.39-4.13,10.57-6.51,15.75-6.51C951.48,423.21,954.63,426.43,954.63,432.52Z" transform="translate(-223.78 -257.12)"/><path class="cls-3" d="M990.82,424.75l-.7,2.87a69.41,69.41,0,0,0-9-.56c-8.82,0-12,3.15-12,14s3.15,13.93,12,13.93a61.15,61.15,0,0,0,9.87-.77l.49,3.08a40.58,40.58,0,0,1-11.06,1.54c-11.62,0-15.89-4.69-15.89-17.78s4.27-17.85,15.89-17.85A33.38,33.38,0,0,1,990.82,424.75Z" transform="translate(-223.78 -257.12)"/><path class="cls-3" d="M1025.89,454.15l.49,3c-2.87,1.12-9,1.68-12.81,1.68-11.34,0-15.75-4.9-15.75-17.92,0-13.23,4.41-17.71,15.19-17.71,9.73,0,14.07,3.57,14.14,10.57.07,6.09-2.24,9.45-7.77,9.45h-16.87c.49,9.24,3.92,11.76,11.69,11.76A96.5,96.5,0,0,0,1025.89,454.15Zm-23.45-14.42h15.89c3.5,0,4.41-2.52,4.34-5.88-.07-4.76-2.87-6.79-9.45-6.79C1005.38,427.06,1002.65,430.14,1002.44,439.73Z" transform="translate(-223.78 -257.12)"/></svg>