<svg id="Capa_1" data-name="Capa 1" xmlns="http://www.w3.org/2000/svg" viewBox="0 0 300 287.47"><defs><style>.cls-1{fill:#616160;}.cls-2{fill:#adacac;}.cls-3{fill:#e17f2f;}</style></defs><title>Orax Vertical SVG</title><path class="cls-1" d="M66.14,286.84q0,7.49-2.86,10.09t-10.45,2.6H13.31q-7.59,0-10.45-2.6T0,286.84V258.56q0-7.5,2.86-10.09t10.45-2.6H52.83q7.59,0,10.45,2.6t2.86,10.09Zm-12.48,2.6v-34H12.48v34Z" transform="translate(0 -12.06)"/><path class="cls-1" d="M148.48,299.53H130.59L109,279.25H97.11v20.28H84.83V245.87h46q12.06,0,12.06,10.4v12.58q0,7.8-6.24,9.67-2.38.74-12.89.73ZM130.8,265.84v-6.45q0-2.7-1.56-3.54a8.12,8.12,0,0,0-4.06-.73H97.11v15h28.07a8,8,0,0,0,4.06-.73C130.28,268.82,130.8,267.64,130.8,265.84Z" transform="translate(0 -12.06)"/><path class="cls-1" d="M227.31,299.53h-14l-6.45-11.75h-34l-6.23,11.75H154.1l30.36-53.66h12.07Zm-25.69-21.42-11.54-21.84-12,21.84Z" transform="translate(0 -12.06)"/><path class="cls-1" d="M300,299.53H283.05l-19.66-20.8-18.09,20.8H230.53L256,272l-25.89-26.1h16.53l17.16,18.2,16.33-18.2h14.35l-23.4,24.65Z" transform="translate(0 -12.06)"/><path class="cls-2" d="M200.34,77A72.14,72.14,0,0,0,82,154Z" transform="translate(0 -12.06)"/><path class="cls-2" d="M108.33,187.3A72.11,72.11,0,0,0,212.05,92.47Z" transform="translate(0 -12.06)"/><polygon class="cls-3" points="179.15 93.12 92.27 160.07 56.32 187.77 94.63 187.77 108.33 175.25 212.05 80.41 300 0 179.15 93.12"/></svg>